REM DIRINDEX 1\8,1\2\11,1\3\12,1\3\14,1\5\15,1\5\16,1\6\17,1\6\18,1\4\19,1\4\20,1\4\21,1\4\22,1\7\23,1\7\24,1\7\25,1\2\9\26,1\2\9\27,1\2\10\28,1\2\10\29,1\2\10\30,1\2\10\31,1\2\10\32,1\3\13\33,1\3\13\34,1\3\13\35
REM DIRNAME folder01,folder02,folder03,folder04,folder05,folder06,folder07,folder08,folder09,folder10,folder11,folder12,folder13,folder14,folder15,folder16,folder17,folder18,folder19,folder20,folder21,folder22,folder23,folder24,folder25,folder26,folder27,folder28,folder29,folder30,folder31,folder32,folder33,folder34,folder35
TITLE ""
FILE "1-20 020_UNIT2_SET6.mp3" MP3
  TRACK 01 AUDIO
    TITLE "11:cjc123_1051"
    INDEX 01 00:00:00
  TRACK 02 AUDIO
    TITLE "0:"
    INDEX 01 00:02:67
  TRACK 03 AUDIO
    TITLE "28:cjc123_1052"
    INDEX 01 00:03:45
  TRACK 04 AUDIO
    TITLE "0:"
    INDEX 01 00:04:33
  TRACK 05 AUDIO
    TITLE "29:cjc123_1053"
    INDEX 01 00:04:52
  TRACK 06 AUDIO
    TITLE "0:"
    INDEX 01 00:05:57
  TRACK 07 AUDIO
    TITLE "30:cjc123_1054"
    INDEX 01 00:06:04
  TRACK 08 AUDIO
    TITLE "0:"
    INDEX 01 00:06:61
  TRACK 09 AUDIO
    TITLE "31:cjc123_1055"
    INDEX 01 00:07:35
  TRACK 10 AUDIO
    TITLE "0:"
    INDEX 01 00:11:13
  TRACK 11 AUDIO
    TITLE "32:cjc123_1056"
    INDEX 01 00:11:50
  TRACK 12 AUDIO
    TITLE "0:"
    INDEX 01 00:15:15
  TRACK 13 AUDIO
    TITLE "28:cjc123_1057"
    INDEX 01 00:15:60
  TRACK 14 AUDIO
    TITLE "0:"
    INDEX 01 00:16:53
  TRACK 15 AUDIO
    TITLE "29:cjc123_1058"
    INDEX 01 00:17:00
  TRACK 16 AUDIO
    TITLE "0:"
    INDEX 01 00:18:03
  TRACK 17 AUDIO
    TITLE "30:cjc123_1059"
    INDEX 01 00:18:11
  TRACK 18 AUDIO
    TITLE "0:"
    INDEX 01 00:19:07
  TRACK 19 AUDIO
    TITLE "31:cjc123_1060"
    INDEX 01 00:19:60
  TRACK 20 AUDIO
    TITLE "0:"
    INDEX 01 00:23:26
  TRACK 21 AUDIO
    TITLE "32:cjc123_1061"
    INDEX 01 00:23:65
  TRACK 22 AUDIO
    TITLE "0:"
    INDEX 01 00:29:29
  TRACK 23 AUDIO
    TITLE "28:cjc123_1062"
    INDEX 01 00:30:03
  TRACK 24 AUDIO
    TITLE "0:"
    INDEX 01 00:31:00
  TRACK 25 AUDIO
    TITLE "29:cjc123_1063"
    INDEX 01 00:31:20
  TRACK 26 AUDIO
    TITLE "0:"
    INDEX 01 00:32:39
  TRACK 27 AUDIO
    TITLE "30:cjc123_1064"
    INDEX 01 00:32:50
  TRACK 28 AUDIO
    TITLE "0:"
    INDEX 01 00:33:58
  TRACK 29 AUDIO
    TITLE "31:cjc123_1065"
    INDEX 01 00:34:34
  TRACK 30 AUDIO
    TITLE "0:"
    INDEX 01 00:37:69
  TRACK 31 AUDIO
    TITLE "32:cjc123_1066"
    INDEX 01 00:38:31
  TRACK 32 AUDIO
    TITLE "0:"
    INDEX 01 00:43:23
  TRACK 33 AUDIO
    TITLE "28:cjc123_1067"
    INDEX 01 00:43:70
  TRACK 34 AUDIO
    TITLE "0:"
    INDEX 01 00:45:00
  TRACK 35 AUDIO
    TITLE "29:cjc123_1068"
    INDEX 01 00:45:14
  TRACK 36 AUDIO
    TITLE "0:"
    INDEX 01 00:46:45
  TRACK 37 AUDIO
    TITLE "30:cjc123_1069"
    INDEX 01 00:46:54
  TRACK 38 AUDIO
    TITLE "0:"
    INDEX 01 00:47:62
  TRACK 39 AUDIO
    TITLE "31:cjc123_1070"
    INDEX 01 00:48:40
  TRACK 40 AUDIO
    TITLE "0:"
    INDEX 01 00:51:54
  TRACK 41 AUDIO
    TITLE "32:cjc123_1071"
    INDEX 01 00:52:16
  TRACK 42 AUDIO
    TITLE "0:"
    INDEX 01 00:55:59
  TRACK 43 AUDIO
    TITLE "28:cjc123_1072"
    INDEX 01 00:56:27
  TRACK 44 AUDIO
    TITLE "0:"
    INDEX 01 00:57:27
  TRACK 45 AUDIO
    TITLE "29:cjc123_1073"
    INDEX 01 00:57:37
  TRACK 46 AUDIO
    TITLE "0:"
    INDEX 01 00:58:17
  TRACK 47 AUDIO
    TITLE "30:cjc123_1074"
    INDEX 01 00:58:42
  TRACK 48 AUDIO
    TITLE "0:"
    INDEX 01 00:59:39
  TRACK 49 AUDIO
    TITLE "31:cjc123_1075"
    INDEX 01 01:00:10
  TRACK 50 AUDIO
    TITLE "0:"
    INDEX 01 01:04:01
  TRACK 51 AUDIO
    TITLE "32:cjc123_1076"
    INDEX 01 01:04:35
  TRACK 52 AUDIO
    TITLE "0:"
    INDEX 01 01:08:21
  TRACK 53 AUDIO
    TITLE "28:cjc123_1077"
    INDEX 01 01:08:72
  TRACK 54 AUDIO
    TITLE "0:"
    INDEX 01 01:10:00
  TRACK 55 AUDIO
    TITLE "29:cjc123_1078"
    INDEX 01 01:10:12
  TRACK 56 AUDIO
    TITLE "0:"
    INDEX 01 01:11:37
  TRACK 57 AUDIO
    TITLE "30:cjc123_1079"
    INDEX 01 01:11:47
  TRACK 58 AUDIO
    TITLE "0:"
    INDEX 01 01:12:42
  TRACK 59 AUDIO
    TITLE "31:cjc123_1080"
    INDEX 01 01:13:18
  TRACK 60 AUDIO
    TITLE "0:"
    INDEX 01 01:16:54
  TRACK 61 AUDIO
    TITLE "32:cjc123_1081"
    INDEX 01 01:17:24
  TRACK 62 AUDIO
    TITLE "0:"
    INDEX 01 01:20:71
  TRACK 63 AUDIO
    TITLE "28:cjc123_1082"
    INDEX 01 01:21:47
  TRACK 64 AUDIO
    TITLE "0:"
    INDEX 01 01:22:56
  TRACK 65 AUDIO
    TITLE "29:cjc123_1083"
    INDEX 01 01:22:66
  TRACK 66 AUDIO
    TITLE "0:"
    INDEX 01 01:24:14
  TRACK 67 AUDIO
    TITLE "30:cjc123_1084"
    INDEX 01 01:24:28
  TRACK 68 AUDIO
    TITLE "0:"
    INDEX 01 01:25:35
  TRACK 69 AUDIO
    TITLE "31:cjc123_1085"
    INDEX 01 01:26:15
  TRACK 70 AUDIO
    TITLE "0:"
    INDEX 01 01:28:72
  TRACK 71 AUDIO
    TITLE "32:cjc123_1086"
    INDEX 01 01:29:35
  TRACK 72 AUDIO
    TITLE "0:"
    INDEX 01 01:32:45
  TRACK 73 AUDIO
    TITLE "28:cjc123_1087"
    INDEX 01 01:33:23
  TRACK 74 AUDIO
    TITLE "0:"
    INDEX 01 01:34:16
  TRACK 75 AUDIO
    TITLE "29:cjc123_1088"
    INDEX 01 01:34:30
  TRACK 76 AUDIO
    TITLE "0:"
    INDEX 01 01:36:11
  TRACK 77 AUDIO
    TITLE "30:cjc123_1089"
    INDEX 01 01:36:25
  TRACK 78 AUDIO
    TITLE "0:"
    INDEX 01 01:37:05
  TRACK 79 AUDIO
    TITLE "31:cjc123_1090"
    INDEX 01 01:37:66
  TRACK 80 AUDIO
    TITLE "0:"
    INDEX 01 01:41:20
  TRACK 81 AUDIO
    TITLE "32:cjc123_1091"
    INDEX 01 01:41:50
  TRACK 82 AUDIO
    TITLE "0:"
    INDEX 01 01:46:29
  TRACK 83 AUDIO
    TITLE "28:cjc123_1092"
    INDEX 01 01:46:70
  TRACK 84 AUDIO
    TITLE "0:"
    INDEX 01 01:47:74
  TRACK 85 AUDIO
    TITLE "29:cjc123_1093"
    INDEX 01 01:48:09
  TRACK 86 AUDIO
    TITLE "0:"
    INDEX 01 01:49:04
  TRACK 87 AUDIO
    TITLE "30:cjc123_1094"
    INDEX 01 01:49:18
  TRACK 88 AUDIO
    TITLE "0:"
    INDEX 01 01:50:25
  TRACK 89 AUDIO
    TITLE "31:cjc123_1095"
    INDEX 01 01:50:72
  TRACK 90 AUDIO
    TITLE "0:"
    INDEX 01 01:54:21
  TRACK 91 AUDIO
    TITLE "32:cjc123_1096"
    INDEX 01 01:54:50
  TRACK 92 AUDIO
    TITLE "0:"
    INDEX 01 01:58:21
  TRACK 93 AUDIO
    TITLE "28:cjc123_1097"
    INDEX 01 01:58:74
  TRACK 94 AUDIO
    TITLE "0:"
    INDEX 01 02:00:10
  TRACK 95 AUDIO
    TITLE "29:cjc123_1098"
    INDEX 01 02:00:35
  TRACK 96 AUDIO
    TITLE "0:"
    INDEX 01 02:01:60
  TRACK 97 AUDIO
    TITLE "30:cjc123_1099"
    INDEX 01 02:01:70
  TRACK 98 AUDIO
    TITLE "0:"
    INDEX 01 02:03:04
  TRACK 99 AUDIO
    TITLE "31:cjc123_1100"
    INDEX 01 02:03:55
  TRACK 100 AUDIO
    TITLE "0:"
    INDEX 01 02:06:46
  TRACK 101 AUDIO
    TITLE "32:cjc123_1101"
    INDEX 01 02:07:20
  TRACK 102 AUDIO
    TITLE "0:"
    INDEX 01 02:10:18
  TRACK 103 AUDIO
    TITLE "28:cjc123_1102"
    INDEX 01 02:10:69
  TRACK 104 AUDIO
    TITLE "0:"
    INDEX 01 02:11:64
  TRACK 105 AUDIO
    TITLE "29:cjc123_1103"
    INDEX 01 02:12:05
  TRACK 106 AUDIO
    TITLE "0:"
    INDEX 01 02:13:44
  TRACK 107 AUDIO
    TITLE "30:cjc123_1104"
    INDEX 01 02:13:52
  TRACK 108 AUDIO
    TITLE "0:"
    INDEX 01 02:14:45
  TRACK 109 AUDIO
    TITLE "31:cjc123_1105"
    INDEX 01 02:15:19
  TRACK 110 AUDIO
    TITLE "0:"
    INDEX 01 02:18:33
  TRACK 111 AUDIO
    TITLE "32:cjc123_1106"
    INDEX 01 02:19:01
  TRACK 112 AUDIO
    TITLE "0:"
    INDEX 01 02:22:68
  TRACK 113 AUDIO
    TITLE "28:cjc123_1107"
    INDEX 01 02:23:38
  TRACK 114 AUDIO
    TITLE "0:"
    INDEX 01 02:24:40
  TRACK 115 AUDIO
    TITLE "29:cjc123_1108"
    INDEX 01 02:24:71
  TRACK 116 AUDIO
    TITLE "0:"
    INDEX 01 02:25:67
  TRACK 117 AUDIO
    TITLE "30:cjc123_1109"
    INDEX 01 02:25:70
  TRACK 118 AUDIO
    TITLE "0:"
    INDEX 01 02:27:13
  TRACK 119 AUDIO
    TITLE "31:cjc123_1110"
    INDEX 01 02:27:62
  TRACK 120 AUDIO
    TITLE "0:"
    INDEX 01 02:32:69
  TRACK 121 AUDIO
    TITLE "32:cjc123_1111"
    INDEX 01 02:33:37
  TRACK 122 AUDIO
    TITLE "0:"
    INDEX 01 02:38:03
  TRACK 123 AUDIO
    TITLE "28:cjc123_1112"
    INDEX 01 02:38:48
  TRACK 124 AUDIO
    TITLE "0:"
    INDEX 01 02:40:05
  TRACK 125 AUDIO
    TITLE "29:cjc123_1113"
    INDEX 01 02:40:15
  TRACK 126 AUDIO
    TITLE "0:"
    INDEX 01 02:41:62
  TRACK 127 AUDIO
    TITLE "30:cjc123_1114"
    INDEX 01 02:41:69
  TRACK 128 AUDIO
    TITLE "0:"
    INDEX 01 02:43:12
  TRACK 129 AUDIO
    TITLE "31:cjc123_1115"
    INDEX 01 02:43:57
  TRACK 130 AUDIO
    TITLE "0:"
    INDEX 01 02:47:37
  TRACK 131 AUDIO
    TITLE "32:cjc123_1116"
    INDEX 01 02:47:70
  TRACK 132 AUDIO
    TITLE "0:"
    INDEX 01 02:50:65
  TRACK 133 AUDIO
    TITLE "28:cjc123_1117"
    INDEX 01 02:51:35
  TRACK 134 AUDIO
    TITLE "0:"
    INDEX 01 02:52:48
  TRACK 135 AUDIO
    TITLE "29:cjc123_1118"
    INDEX 01 02:52:65
  TRACK 136 AUDIO
    TITLE "0:"
    INDEX 01 02:53:61
  TRACK 137 AUDIO
    TITLE "30:cjc123_1119"
    INDEX 01 02:53:73
  TRACK 138 AUDIO
    TITLE "0:"
    INDEX 01 02:55:05
  TRACK 139 AUDIO
    TITLE "31:cjc123_1120"
    INDEX 01 02:55:58
  TRACK 140 AUDIO
    TITLE "0:"
    INDEX 01 02:59:28
  TRACK 141 AUDIO
    TITLE "32:cjc123_1121"
    INDEX 01 03:00:02
  TRACK 142 AUDIO
    TITLE "0:"
    INDEX 01 03:03:01
  TRACK 143 AUDIO
    TITLE "28:cjc123_1122"
    INDEX 01 03:03:28
  TRACK 144 AUDIO
    TITLE "0:"
    INDEX 01 03:04:43
  TRACK 145 AUDIO
    TITLE "29:cjc123_1123"
    INDEX 01 03:04:61
  TRACK 146 AUDIO
    TITLE "0:"
    INDEX 01 03:06:09
  TRACK 147 AUDIO
    TITLE "30:cjc123_1124"
    INDEX 01 03:06:20
  TRACK 148 AUDIO
    TITLE "0:"
    INDEX 01 03:07:28
  TRACK 149 AUDIO
    TITLE "31:cjc123_1125"
    INDEX 01 03:08:04
  TRACK 150 AUDIO
    TITLE "0:"
    INDEX 01 03:10:61
  TRACK 151 AUDIO
    TITLE "32:cjc123_1126"
    INDEX 01 03:11:16
  TRACK 152 AUDIO
    TITLE "0:"
    INDEX 01 03:14:06
